PathFileType	4	(X/Y/Z)	/home/abdul/Desktop/myosuite/custom_workspace/IK/output/S3_12_2.trc
DataRate	CameraRate	NumFrames	NumMarkers	Units	OrigDataRate	OrigDataStartFrame	OrigNumFrames
200.0	200.0	50	3	mm	200.0	1	955
Frame#	Time	V_Shoulder			V_Elbow			V_Wrist		
		X1	Y1	Z1	X2	Y2	Z2	X3	Y3	Z3

1	0.0	-135.73956640395662	651.3286590173349	297.4591550792704	-323.5453012391563	478.9263232777034	34.936115013890486	-272.3990626325733	232.66628292098636	32.38389358004376
2	0.005	-135.68314325467975	651.3721243987776	297.59151509253434	-323.7373489990486	478.9590123701545	35.181429168650965	-272.52475612949974	232.75158974647863	32.3480147941287
3	0.01	-135.62687390771188	651.4156546043223	297.7242682876021	-323.93133480030974	478.99434702904665	35.42670726932673	-272.6375477810262	232.84750111569463	32.32015362449772
4	0.015	-135.5708631072956	651.4591579551819	297.8572081200037	-324.1269497846785	479.03226409937844	35.67153445621264	-272.7362434428326	232.95427418472417	32.30068251092234
5	0.02	-135.51521593182704	651.5025401715485	297.99012650448617	-324.32387462123194	479.0726851944084	35.91549444016621	-272.8196318037553	233.07214372999562	32.28995875726061
6	0.025	-135.46003744216736	651.5457045271806	298.1228144885463	-324.52178016724224	479.11551626760735	36.158170923087425	-272.8864871099968	233.2013206520872	32.28832287308894
7	0.03	-135.40543232667775	651.5885520081874	298.25506293232496	-324.72032816574665	479.1606472315127	36.399149032293884	-272.93557200292423	233.3419905304424	32.2960969445166
8	0.035	-135.3515045445015	651.63098147527	298.38666319185285	-324.91917197793725	479.2079516271057	36.63801676262169	-272.96564046268685	233.49431223737022	32.313583042708004
9	0.04	-135.29835696861082	651.6728898287057	298.5174078026521	-325.11795734833925	479.2572863471705	36.874366420026874	-272.97544084925505	233.65841661959985	32.34106167868959
10	0.045	-135.2460910301211	651.7141721753829	298.6470911607373	-325.3163232006102	479.30849141690805	37.10779606043458	-272.96371903188526	233.8344052554886	32.37879031302594
11	0.05	-135.19480636535442	651.7547219972339	298.7755101981051	-325.51390246165556	479.36138983485574	37.33791091758198	-272.9292215974323	234.02234929575803	32.42700192891214
12	0.055	-135.14460046710303	651.7944313204425	298.90246504986834	-325.71032291161987	479.4157874769287	37.564324813627316	-272.8706991273811	234.22228839534964	32.48590367714536
13	0.06	-135.09556834150766	651.83319088485	299.0277597102683	-325.90520805718404	479.47147306613	37.786661546349436	-272.7869095329527	234.43422974365902	32.55567560130545
14	0.065	-135.0478021719221	651.8708903130288	299.1512026748877	-326.0981780254711	479.52821821019444	38.00455624684135	-272.6766214371545	234.65814720002206	32.63646945129145
15	0.07	-135.00139099108648	651.9074182785374	299.2726075664875	-326.28885047574454	479.5857775091256	38.217656701706176	-272.53861759220797	234.8939805408943	32.72840759312559
16	0.075	-134.95642036287816	651.9426626729223	299.3917937420007	-326.47684152596867	479.6438887342638	38.425624633894515	-272.3716983203906	235.14163482468427	32.831582022648874
17	0.08	-134.9129720748509	651.9765107710851	299.5085868783369	-326.6617666911965	479.70227308018553	38.628136936479216	-272.17468496598417	235.4009798796788	32.94605349038937
18	0.085	-134.87112384270912	652.0088493946834	299.62281953477503	-326.8432418306587	479.7606354903861	38.824886853845165	-271.9464233457362	235.67184991993275	33.07185074448729
19	0.09	-134.83094902779956	652.0395650732896	299.7343316898576	-327.02088410034276	479.81866505733404	39.015585104979536	-271.6857871850041	235.9540432933934	33.20896989810751
20	0.095	-134.7925163686319	652.0685442030801	299.8429712508375	-327.1943129077812	479.8760354971159	39.19996094377959	-271.39168152659107	236.2473223658909	33.35737392726077
21	0.1	-134.75588972736833	652.0956732028843	299.94859453387335	-327.3631508657129	479.93240569851287	39.37776315155181	-271.06304609917476	236.55141354395462	33.51699230439052
22	0.105	-134.72112785214827	652.1208386674675	300.05106671331686	-327.52702474124044	479.9874203459682	39.5487609571564	-270.69885863220054	236.8660074387165	33.68772077246207
23	0.11	-134.68828415603693	652.1439275179774	300.1502622385882	-327.6855663970789	480.04071061551934	39.712744880554126	-270.2981381041491	237.19075917243862	33.86942126361805
24	0.115	-134.65740651331004	652.1648271495222	300.2460652172883	-327.83841372148595	480.09189494238467	39.86952749583827	-269.8599479112008	237.52528882845553	34.06192196573912
25	0.12	-134.6285370737082	652.1834255759004	300.33836976335505	-327.9852115434705	480.1405798585101	40.01894411018057	-269.3833989435051	237.86918204456225	34.26501753947576
26	0.125	-134.60171209521357	652.1996115715388	300.4270803092256	-328.12561252990565	480.1863608980026	40.16085335548667	-268.8676525565289	238.22199074910344	34.47846948749738
27	0.13	-134.57696179582376	652.2132748107324	300.5121118811259	-328.2592780612171	480.22882356800466	40.29513768994143	-268.3119234252923	238.58323403824	34.70200667684463
28	0.135	-134.55431022471643	652.2243060043212	300.593390336767	-328.3858790823834	480.26754438219916	40.42170380702647	-267.7154822697149	238.9523991920861	34.935326014373125
29	0.14	-134.53377515311965	652.2325970339572	300.6708525648825	-328.5050969260683	480.3020919537806	40.54048295000962	-267.07765843978035	239.32894282663023	35.17809327434807
30	0.145	-134.51536798512387	652.2380410841553	300.74444664620074	-328.6166241048103	480.33202814438744	40.65143113033653	-266.39784234978106	239.71229217758264	35.42994407629499
31	0.15	-134.49909368859264	652.2405327723335	300.81413197559687	-328.7201650693128	480.3569092651651	40.75452924879668	-265.67548775152807	240.10184651153327	35.69048501023912
32	0.155	-134.48495074625373	652.2399682770733	300.87987934532384	-328.81543693002186	480.3762873258176	40.8497831187874	-264.9101138370977	240.49697865906808	35.959294905482324
33	0.16	-134.47293112697605	652.2362454648394	300.94167098937004	-328.90217013933335	480.3897113272173	40.93722339145768	-264.1013071624289	240.89703666377633	36.23592623807904
34	0.165	-134.4630202771642	652.22926401541	300.9995005891375	-328.9801091319464	480.3967285928699	41.01690538297563	-263.2487233838846	241.3013455403987	36.519906671190924
35	0.17	-134.45519713213073	652.2189255462739	301.0533732407778	-329.0490129210705	480.39688613428484	41.088908804628446	-262.35208880073543	241.70920913471878	36.81074072153136
36	0.175	-134.4494341472372	652.2051337362504	301.1033053846624	-329.108655648397	480.3897320450748	41.153337396927036	-261.41120169741066	242.11991207719132	37.107911544165404
37	0.18	-134.44569734852664	652.1877944485813	301.1493246975974	-329.1588270859619	480.3748169184095	41.21031846934767	-260.42593348028504	242.53272182173947	37.41088282701672
38	0.185	-134.44394640250616	652.1668158537423	301.1914699485236	-329.19933308825836	480.3516952822738	41.26000234779756	-259.39622960471877	242.94689076063932	37.71910078556005
39	0.19	-134.44413470467694	652.1421085522006	301.22979081856846	-329.22999599319473	480.3199270468356	41.30256173233629	-258.32211028904004	243.36165840595228	38.0319962473547
40	0.195	-134.4462094863477	652.1135856973357	301.2643476864351	-329.25065497074013	480.2790789581103	41.338190968118795	-257.20367101314287	243.7762536275635	38.348986815310326
41	0.2	-134.45011193921346	652.0811631187138	301.29521138022864	-329.26116631835566	480.22872605202093	41.36710523294564	-256.04108280036615	244.1898969375446	38.669479097879346
42	0.205	-134.45577735712797	652.0447594458884	301.3224628969278	-329.2614037025633	480.1684531028928	41.38953964520833	-254.83459228230672	244.6018028102831	38.9928709937493
43	0.21	-134.4631352944477	652.0042962328661	301.3461930908133	-329.25125834627084	480.0978560603937	41.40574829640174	-253.58452154720322	245.01118202761032	39.31855401807011
44	0.215	-134.47210974027965	651.9596980833517	301.3665023322587	-329.2306391617262	480.01654346893406	41.41600321273681	-252.29126777349316	245.41724403801845	39.64591565680364
45	0.22	-134.48261930792225	651.9108927768498	301.383500138382	-329.1994728292401	479.92413786357235	41.42059325072485	-250.9553026510893	245.81919931898392	39.97434173543122
46	0.225	-134.49457743874936	651.8578113956654	301.39730477713573	-329.1577038220703	479.8202771365362	41.419822931915945	-249.5771715938401	246.21626173141246	40.303218788005545
47	0.23	-134.50789261975123	651.800388452811	301.4080428464909	-329.10529437811147	479.70461586856135	41.41401122225781	-248.15749274751855	246.60765085528863	40.63193641239019
48	0.235	-134.52246861391487	651.7385620207848	301.41584883044055	-329.0422244192827	479.576826619376	41.40349026179474	-246.69695579852964	246.99259429575116	40.95988959749688
49	0.24	-134.5382047025973	651.6722738611476	301.4208646336064	-328.9684914197394	479.4366011718104	41.38860405064857	-245.19632058932172	247.37032994902094	41.286481008410306
50	0.245	-134.55499593902115	651.6014695547832	301.4232390962915	-328.8841102242634	479.2836517241925	41.36970709741286	-243.65641554723865	247.7401082178849	41.611123215483616
